#!OML:ASF X:\für Bonn\!DataBase\2005_08_11_Bastian_Final\c3d\Bastian.ASF
:FULLY-SPECIFIED
:DEGREES
64
root 4.21033 16.5403 -3.14389 660.967 83.7065 -403.399
lowerback 37.603 -5.32428 11.7086
upperback 16.8175 0.210297 5.63915
thorax 0.302837 1.59409 -0.04197
lowerneck 0.257666 -14.6315 -3.12552
upperneck -1.39402 -19.5318 19.0954
head 1.80361 -9.75582 5.57177
rclavicle 5.08889e-014 5.88403e-014
rhumerus 10.1076 13.3517 -63.9011
rradius 23.4671
rwrist 1.96402
rhand -24.0339 -1.66107
rfingers 7.12502
rthumb 2.44464 -31.6268
lclavicle 5.08889e-014 5.88403e-014
lhumerus -22.5217 -29.7944 99.2915
lradius 21.0501
lwrist 18.0216
lhand -5.85766 -1.59379
lfingers 7.12502
lthumb 19.9692 27.4002
rfemur -18.704 -6.71981 22.4022
rtibia 67.8442
rfoot -11.937 -0.229957
rtoes -19.5783
lfemur -16.8955 5.22119 -17.688
ltibia 39.5587
lfoot 0.765984 -4.79229
ltoes 2.23423
65
root 4.23617 16.5322 -3.1836 661.471 83.9876 -403.187
lowerback 38.4449 -5.66515 11.9817
upperback 17.0232 0.114906 5.70952
thorax 0.279308 1.59757 -0.0438468
lowerneck -0.0541669 -14.7192 -2.96644
upperneck -2.15157 -19.562 19.1785
head 1.62934 -9.81156 5.57644
rclavicle -2.54444e-014 -3.18055e-014
rhumerus 11.3932 13.0537 -63.0611
rradius 23.2722
rwrist 1.76998
rhand -24.2454 -1.49137
rfingers 7.12502
rthumb 2.24034 -31.4594
lclavicle -2.54444e-014 -3.18055e-014
lhumerus -21.5111 -31.1586 98.7565
lradius 21.8626
lwrist 18.3876
lhand -6.18093 -1.78208
lfingers 7.12502
lthumb 19.6584 27.244
rfemur -20.0484 -7.10778 22.041
rtibia 67.8854
rfoot -12.5309 0.500737
rtoes -19.0435
lfemur -17.3138 5.41876 -18.153
ltibia 39.7951
lfoot 0.745759 -4.96125
ltoes 3.10803
66
root 4.26175 16.5256 -3.2227 662.115 84.2599 -402.898
lowerback 39.1843 -6.00709 12.3002
upperback 17.2507 0.0185259 5.745
thorax 0.321778 1.60898 -0.1021
lowerneck -0.382156 -14.7909 -2.73587
upperneck -2.91167 -19.5679 19.3122
head 1.45266 -9.85513 5.58785
rclavicle 5.40694e-014 9.22361e-014
rhumerus 12.7186 12.4544 -62.364
rradius 22.97
rwrist 1.85432
rhand -24.4378 -1.23607
rfingers 7.12502
rthumb 2.05451 -31.2059
lclavicle 5.40694e-014 9.22361e-014
lhumerus -20.3622 -32.289 97.9981
lradius 22.638
lwrist 18.606
lhand -6.63056 -2.19267
lfingers 7.12502
lthumb 19.2261 26.877
rfemur -21.4025 -7.43047 21.7086
rtibia 67.7405
rfoot -13.1914 1.33584
rtoes -18.4153
lfemur -17.7938 5.58875 -18.6187
ltibia 40.0371
lfoot 0.709985 -5.10291
ltoes 3.67868
67
root 4.28617 16.5182 -3.26073 662.956 84.5519 -402.445
lowerback 39.8983 -6.34346 12.5961
upperback 17.4659 -0.0785172 5.77059
thorax 0.363837 1.61805 -0.15776
lowerneck -0.642357 -14.8512 -2.47004
upperneck -3.73206 -19.5458 19.4551
head 1.24147 -9.89368 5.60894
rclavicle 2.06736e-014 2.54444e-014
rhumerus 14.0015 11.9635 -61.6328
rradius 22.7435
rwrist 1.77618
rhand -24.6016 -1.03252
rfingers 7.12502
rthumb 1.8963 -31.0038
lclavicle 2.06736e-014 2.54444e-014
lhumerus -19.1444 -33.2678 97.1193
lradius 23.4684
lwrist 18.7543
lhand -7.10401 -2.51392
lfingers 7.12502
lthumb 18.7708 26.6004
rfemur -22.7507 -7.68151 21.3571
rtibia 67.4216
rfoot -13.8444 2.26085
rtoes -17.528
lfemur -18.3232 5.67274 -19.1094
ltibia 40.2974
lfoot 0.67121 -5.18863
ltoes 4.50273
68
root 4.31031 16.509 -3.29721 663.663 84.791 -402.108
lowerback 40.6135 -6.68895 12.897
upperback 17.7016 -0.173125 5.81415
thorax 0.435799 1.63163 -0.193579
lowerneck -0.881868 -14.8738 -2.26506
upperneck -4.54562 -19.4723 19.6708
head 1.0375 -9.90784 5.66414
rclavicle -3.97569e-014 -2.22639e-014
rhumerus 15.3 11.4956 -60.8797
rradius 22.5746
rwrist 1.62341
rhand -24.7206 -0.824027
rfingers 7.12502
rthumb 1.78137 -30.7963
lclavicle -3.97569e-014 -2.22639e-014
lhumerus -17.841 -34.0665 96.1046
lradius 24.3298
lwrist 18.7983
lhand -7.59147 -2.94102
lfingers 7.12502
lthumb 18.3019 26.218
rfemur -23.9654 -7.85205 21.0625
rtibia 66.9007
rfoot -14.4538 3.1315
rtoes -17.1122
lfemur -18.8428 5.72465 -19.5351
ltibia 40.5862
lfoot 0.639369 -5.23365
ltoes 5.42355
69
root 4.3328 16.4968 -3.33215 664.688 85.0593 -401.519
lowerback 41.2771 -6.98531 13.1417
upperback 17.8959 -0.234325 5.90131
thorax 0.481255 1.64915 -0.168129
lowerneck -1.00901 -14.9019 -2.17046
upperneck -5.3184 -19.4071 19.942
head 0.8453 -9.92919 5.7565
rclavicle -2.22639e-014 -8.11041e-014
rhumerus 16.5038 11.0117 -60.0688
rradius 22.4681
rwrist 1.58089
rhand -24.7589 -0.681133
rfingers 7.12502
rthumb 1.74443 -30.6537
lclavicle -2.22639e-014 -8.11041e-014
lhumerus -16.5641 -34.7294 95.0791
lradius 25.256
lwrist 18.7936
lhand -8.02414 -3.37133
lfingers 7.12502
lthumb 17.8856 25.8262
rfemur -25.181 -7.9755 20.7562
rtibia 66.2235
rfoot -14.9327 3.76078
rtoes -16.7522
lfemur -19.464 5.7648 -20.0007
ltibia 40.926
lfoot 0.611985 -5.27171
ltoes 6.45238
70
root 4.35494 16.4835 -3.36378 665.902 85.3196 -400.668
lowerback 42.0065 -7.26822 13.3455
upperback 18.09 -0.271277 5.99687
thorax 0.51442 1.67626 -0.118852
lowerneck -1.12184 -14.9379 -2.01735
upperneck -5.99651 -19.3633 20.1314
head 0.665887 -9.95722 5.81505
rclavicle -1.59028e-014 3.02153e-014
rhumerus 17.595 10.5264 -59.2585
rradius 22.501
rwrist 1.53244
rhand -24.7465 -0.677118
rfingers 7.12502
rthumb 1.75638 -30.6496
lclavicle -1.59028e-014 3.02153e-014
lhumerus -15.2606 -35.1724 93.9763
lradius 26.2237
lwrist 18.7011
lhand -8.4042 -3.80753
lfingers 7.12502
lthumb 17.5199 25.423
rfemur -26.2108 -8.0232 20.4512
rtibia 65.4039
rfoot -15.279 4.06275
rtoes -17.0594
lfemur -20.0171 5.78496 -20.4481
ltibia 41.3202
lfoot 0.50424 -5.28447
ltoes 7.38915
71
root 4.37618 16.4666 -3.39334 667.018 85.5325 -399.947
lowerback 42.7147 -7.5385 13.5778
upperback 18.2534 -0.281795 6.11276
thorax 0.528506 1.71239 -0.070042
lowerneck -1.26209 -14.9716 -1.91777
upperneck -6.51067 -19.3419 20.2906
head 0.543608 -9.98354 5.86081
rclavicle -2.06736e-014 -6.67916e-014
rhumerus 18.6213 10.0578 -58.4492
rradius 22.5743
rwrist 1.41978
rhand -24.7273 -0.671357
rfingers 7.12502
rthumb 1.77493 -30.6437
lclavicle -2.06736e-014 -6.67916e-014
lhumerus -14.0015 -35.4619 92.8751
lradius 27.2231
lwrist 18.5383
lhand -8.78586 -4.28327
lfingers 7.12502
lthumb 17.1526 24.9796
rfemur -27.2099 -8.0081 20.2176
rtibia 64.4998
rfoot -15.4738 3.94611
rtoes -18.7239
lfemur -20.6365 5.87421 -20.838
ltibia 41.7698
lfoot 0.381963 -5.40263
ltoes 8.06295
72
root 4.39704 16.4464 -3.42 668.311 85.7644 -399.097
lowerback 43.3436 -7.78955 13.7982
upperback 18.3968 -0.292727 6.20875
thorax 0.545417 1.74494 -0.0382075
lowerneck -1.29482 -14.9837 -1.76878
upperneck -7.10026 -19.2712 20.4914
head 0.375705 -9.9977 5.92882
rclavicle 3.81667e-014 4.92986e-014
rhumerus 19.5494 9.59658 -57.7011
rradius 22.7184
rwrist 1.28015
rhand -24.707 -0.750807
rfingers 7.12502
rthumb 1.79454 -30.723
lclavicle 3.81667e-014 4.92986e-014
lhumerus -12.8171 -35.7524 91.7354
lradius 28.3748
lwrist 18.6658
lhand -9.37307 -4.68959
lfingers 7.12502
lthumb 16.5873 24.6215
rfemur -28.1954 -7.90149 19.9712
rtibia 63.5617
rfoot -15.623 3.47869
rtoes -20.498
lfemur -21.3476 5.93524 -21.2453
ltibia 42.2712
lfoot 0.221103 -5.51831
ltoes 8.54635
73
root 4.41837 16.4217 -3.44292 670.808 86.0606 -396.993
lowerback 44.9829 -8.23541 14.1512
upperback 17.6368 -0.193157 5.98426
thorax 0.40504 1.7745 -0.0275295
lowerneck -1.17496 -15.0015 -1.53827
upperneck -7.80954 -19.1817 20.6379
head 0.130957 -10.021 5.99293
rclavicle -2.70347e-014 -1.11319e-013
rhumerus 20.3833 9.07626 -57.0339
rradius 22.8354
rwrist 1.23791
rhand -24.7002 -0.779736
rfingers 7.12502
rthumb 1.80113 -30.7519
lclavicle -2.70347e-014 -1.11319e-013
lhumerus -11.7222 -35.9648 90.5816
lradius 29.6243
lwrist 18.8613
lhand -9.95432 -5.06242
lfingers 7.12502
lthumb 16.0276 24.2946
rfemur -29.0915 -7.67664 19.5886
rtibia 62.6385
rfoot -15.7766 2.76229
rtoes -22.0499
lfemur -22.0263 6.0227 -21.7475
ltibia 42.8141
lfoot 0.0077819 -5.66223
ltoes 8.72522
74
root 4.44054 16.3963 -3.46402 674.123 86.3459 -394.042
lowerback 45.7776 -8.45656 14.2624
upperback 17.6775 -0.166979 6.01213
thorax 0.335205 1.80964 -0.00831815
lowerneck -1.01958 -15.0144 -1.25298
upperneck -8.56849 -19.0718 20.7925
head -0.141395 -10.0419 6.06064
rclavicle -8.26944e-014 -3.18055e-014
rhumerus 21.1708 8.57657 -56.3846
rradius 22.9648
rwrist 1.13393
rhand -24.7116 -0.848849
rfingers 7.12502
rthumb 1.79007 -30.8211
lclavicle -8.26944e-014 -3.18055e-014
lhumerus -10.6966 -36.0879 89.4079
lradius 30.9652
lwrist 19.1137
lhand -10.6177 -5.46224
lfingers 7.12502
lthumb 15.3888 23.945
rfemur -29.9151 -7.42205 19.2063
rtibia 61.7583
rfoot -15.9715 1.76794
rtoes -24.1467
lfemur -22.6867 6.12246 -22.27
ltibia 43.3844
lfoot -0.21764 -5.81138
ltoes 8.9316
75
root 4.46201 16.3677 -3.48169 678.337 86.6501 -390.143
lowerback 46.7401 -8.66574 14.327
upperback 17.6 -0.106252 6.0369
thorax 0.114765 1.84288 0.0203651
lowerneck -0.781571 -15.0386 -0.843841
upperneck -9.29902 -18.979 20.7565
head -0.451527 -10.0746 6.06641
rclavicle -1.11319e-013 -7.63333e-014
rhumerus 21.7975 8.03166 -55.831
rradius 23.0795
rwrist 1.1672
rhand -24.7267 -0.920021
rfingers 7.12502
rthumb 1.7755 -30.8924
lclavicle -1.11319e-013 -7.63333e-014
lhumerus -9.84996 -36.0416 88.3046
lradius 32.3254
lwrist 19.2729
lhand -11.1401 -5.9434
lfingers 7.12502
lthumb 14.8856 23.5018
rfemur -30.6681 -7.14608 18.8012
rtibia 60.9368
rfoot -16.2176 0.55053
rtoes -26.418
lfemur -23.3071 6.22756 -22.8183
ltibia 43.9699
lfoot -0.460712 -5.94881
ltoes 9.19674
76
root 4.48444 16.3389 -3.49692 684.025 86.9241 -384.835
lowerback 47.6417 -8.83701 14.3668
upperback 17.5003 -0.0325102 6.04804
thorax -0.113568 1.87641 0.0363231
lowerneck -0.567327 -15.0485 -0.420772
upperneck -10.0332 -18.8649 20.7223
head -0.762635 -10.0965 6.07175
rclavicle 1.27222e-014 -6.83819e-014
rhumerus 22.3754 7.49402 -55.3256
rradius 23.1717
rwrist 1.16597
rhand -24.7658 -0.967439
rfingers 7.12502
rthumb 1.73778 -30.9401
lclavicle 1.27222e-014 -6.83819e-014
lhumerus -9.08702 -35.9536 87.1771
lradius 33.8399
lwrist 19.6009
lhand -11.5735 -6.3752
lfingers 7.12502
lthumb 14.4679 23.1004
rfemur -31.4695 -6.81489 18.3741
rtibia 60.1638
rfoot -16.4781 -0.720531
rtoes -28.5666
lfemur -24.0228 6.32683 -23.3931
ltibia 44.592
lfoot -0.720094 -6.09749
ltoes 9.15655
77
root 4.50525 16.3083 -3.5114 690.895 87.1675 -378.369
lowerback 48.5028 -9.00198 14.3989
upperback 17.4202 0.039394 6.07173
thorax -0.306933 1.91015 0.0684751
lowerneck -0.532831 -15.0781 -0.130094
upperneck -10.6516 -18.8093 20.7233
head -0.986548 -10.1285 6.07841
rclavicle 6.36111e-014 -2.38542e-014
rhumerus 23.0004 6.95729 -54.7809
rradius 23.2602
rwrist 1.16142
rhand -24.6985 -1.08015
rfingers 7.12502
rthumb 1.80279 -31.0523
lclavicle 6.36111e-014 -2.38542e-014
lhumerus -8.27268 -35.6496 86.0747
lradius 35.3311
lwrist 19.908
lhand -11.8606 -6.86202
lfingers 7.12502
lthumb 14.1913 22.6332
rfemur -32.2577 -6.4466 17.9278
rtibia 59.433
rfoot -16.6633 -1.94309
rtoes -30.26
lfemur -24.7954 6.45766 -23.9817
ltibia 45.2534
lfoot -0.980902 -6.24717
ltoes 9.35628
78
root 4.52803 16.2716 -3.52411 699.061 87.3405 -370.608
lowerback 49.3338 -9.16783 14.4574
upperback 17.3552 0.111333 6.051
thorax -0.46885 1.95086 0.041404
lowerneck -0.60674 -15.1192 0.232844
upperneck -11.2414 -18.7773 20.7176
head -1.19039 -10.1679 6.06298
rclavicle 9.54166e-015 -4.29375e-014
rhumerus 23.623 6.34426 -54.3076
rradius 23.2978
rwrist 1.24006
rhand -24.6013 -1.119
rfingers 7.12502
rthumb 1.89665 -31.0903
lclavicle 9.54166e-015 -4.29375e-014
lhumerus -7.42192 -35.3452 84.9006
lradius 36.9178
lwrist 20.3659
lhand -12.0533 -7.17068
lfingers 7.12502
lthumb 14.0057 22.3375
rfemur -33.0072 -6.03301 17.4667
rtibia 58.7682
rfoot -16.8286 -3.09245
rtoes -31.8053
lfemur -25.5983 6.55176 -24.5636
ltibia 45.9804
lfoot -1.31662 -6.37285
ltoes 9.33271
